<svg width="1443" height="700" viewBox="0 0 1443 700" fill="none" xmlns="http://www.w3.org/2000/svg">
<path d="M1 532.583C29.934 508.44 79.6557 473.159 138.925 457.158C206.5 438.915 323.663 425.878 372.172 500.115C396.132 536.784 370.128 578.415 399 610.415C427.691 642.213 475.941 621.777 512.5 638.915C544.5 653.915 553 680.415 568 698.915" stroke="#E4E4E4"/>
<path d="M394 1C422.419 32.5504 496.606 94.1487 566.008 88.1391C652.759 80.6271 712 56 786.377 79.1247C832.677 93.5199 828.257 138.219 870.137 170.771C912.017 203.323 1094.49 124.197 1094.49 124.197C1094.49 124.197 1223.13 66.6047 1235.59 124.197C1248.06 181.789 1196.7 250.398 1220.14 264.421C1238.88 275.638 1375.86 224.357 1442 197.313" stroke="#E17A0E" stroke-opacity="0.24"/>
</svg>
